<svg width="401" height="400" viewBox="0 0 401 400" fill="none" xmlns="http://www.w3.org/2000/svg">
<g clip-path="url(#clip0_13_150)">
<path d="M235.933 224.207L220.953 207.24H226.696C228.386 207.24 229.88 206.303 230.593 204.791C231.305 203.284 231.071 201.555 229.978 200.282L215.328 183.24H220.745C222.451 183.24 223.989 182.237 224.656 180.688C225.316 179.164 225.005 177.39 223.861 176.173L203.186 154.146C202.055 152.936 199.946 152.936 198.813 154.146L178.136 176.173C176.992 177.39 176.683 179.164 177.341 180.688C178.008 182.237 179.548 183.24 181.254 183.24H186.671L172.019 200.286C170.93 201.557 170.696 203.284 171.406 204.793C172.119 206.303 173.611 207.24 175.303 207.24H181.046L166.066 224.207C164.941 225.48 164.686 227.224 165.399 228.756C166.102 230.265 167.649 231.24 169.338 231.24H194.999V235.824L189.32 244.899C188.323 246.894 189.774 249.242 192.003 249.242H209.996C212.225 249.242 213.676 246.894 212.679 244.899L206.999 235.824V231.24H232.661C234.35 231.24 235.897 230.265 236.6 228.756C237.313 227.224 237.058 225.48 235.933 224.207Z" fill="#25471F"/>
</g>
<path d="M318.014 206.229C318.101 205.391 318.446 204.727 319.051 204.236C319.656 203.745 320.377 203.543 321.215 203.63L349.784 206.595C350.59 206.679 351.238 207.023 351.729 207.628C352.217 208.265 352.419 208.986 352.335 209.792L352.039 212.644L320.618 209.382C319.78 209.295 319.116 208.95 318.625 208.345C318.13 207.772 317.927 207.067 318.014 206.229ZM347.014 210.216L352.235 210.758L350.82 224.39C350.74 225.164 350.433 225.767 349.899 226.2C349.366 226.634 348.712 226.81 347.939 226.73C347.197 226.653 346.594 226.346 346.129 225.809C345.695 225.275 345.519 224.622 345.599 223.848L347.014 210.216ZM332.779 208.495L338 209.037L336.655 221.992C336.578 222.733 336.257 223.319 335.691 223.748C335.154 224.214 334.515 224.408 333.774 224.331C332.968 224.248 332.35 223.923 331.92 223.357C331.519 222.827 331.357 222.191 331.434 221.45L332.779 208.495Z" fill="#25471F"/>
<path d="M312.379 238.044C312.695 237.298 313.219 236.764 313.954 236.441C314.705 236.161 315.454 236.178 316.2 236.493L342.658 247.672C343.404 247.987 343.924 248.506 344.217 249.227C344.497 249.979 344.48 250.728 344.165 251.474L343.049 254.115L313.949 241.821C313.203 241.505 312.669 240.981 312.346 240.246C312.053 239.524 312.064 238.791 312.379 238.044ZM325.134 245.069L329.969 247.112L326.299 255.797C325.732 257.14 325.672 258.363 326.12 259.467C326.598 260.583 327.464 261.406 328.718 261.936C330.15 262.541 331.45 262.545 332.617 261.948C333.813 261.363 334.677 260.444 335.206 259.191L338.762 250.774L343.597 252.817L339.928 261.502C339.133 263.382 338.039 264.89 336.645 266.024C335.239 267.189 333.658 267.892 331.902 268.135C330.163 268.421 328.369 268.173 326.518 267.391C324.668 266.609 323.233 265.51 322.213 264.095C321.193 262.679 320.598 261.091 320.427 259.33C320.274 257.612 320.569 255.873 321.313 254.112L325.134 245.069ZM304.794 255.996C305.009 255.489 305.339 255.083 305.784 254.779C306.216 254.504 306.686 254.351 307.192 254.319L323.589 253.596L322.417 259.116L307.59 259.868C307.186 259.909 306.761 259.834 306.313 259.645C305.626 259.355 305.122 258.843 304.799 258.109C304.493 257.417 304.492 256.713 304.794 255.996Z" fill="#25471F"/>
<path d="M294.206 271.748C294.721 271.081 295.365 270.699 296.138 270.6C296.91 270.501 297.63 270.709 298.296 271.224L321.403 289.091C322.07 289.606 322.44 290.24 322.513 290.993C322.612 291.765 322.404 292.485 321.888 293.151C321.373 293.818 320.739 294.188 319.986 294.261C319.239 294.38 318.532 294.181 317.866 293.666L294.759 275.8C294.092 275.284 293.71 274.64 293.611 273.868C293.492 273.121 293.69 272.414 294.206 271.748Z" fill="#25471F"/>
<path d="M279.424 288.779C280.06 288.278 280.777 288.063 281.576 288.134C282.37 288.251 283.017 288.628 283.519 289.264L301.3 311.821C301.782 312.431 301.989 313.114 301.923 313.867C301.852 314.666 301.498 315.316 300.862 315.818C300.251 316.299 299.536 316.491 298.717 316.394C297.893 316.343 297.24 316.012 296.758 315.401L280.511 294.791L271.199 302.132C270.588 302.614 269.931 302.801 269.229 302.695C268.546 302.614 267.964 302.268 267.483 301.658C267.001 301.047 266.791 300.388 266.852 299.68C266.913 298.972 267.248 298.377 267.859 297.896L279.424 288.779Z" fill="#25471F"/>
<path d="M247.609 308.047C249.312 307.334 251.021 306.969 252.736 306.953C254.463 306.967 256.111 307.295 257.68 307.938C259.219 308.593 260.609 309.521 261.85 310.722C263.061 311.936 264.017 313.379 264.718 315.053L272.175 332.848C272.5 333.625 272.509 334.359 272.201 335.05C271.906 335.771 271.37 336.294 270.593 336.62C269.816 336.945 269.067 336.96 268.347 336.665C267.638 336.4 267.121 335.879 266.796 335.102L259.246 317.083C258.695 315.768 257.916 314.706 256.91 313.898C255.917 313.12 254.787 312.645 253.52 312.473C252.254 312.301 250.978 312.484 249.693 313.023C248.408 313.561 247.383 314.342 246.617 315.365C245.852 316.389 245.398 317.527 245.256 318.781C245.126 320.065 245.337 321.365 245.888 322.679L253.438 340.699C253.764 341.476 253.773 342.21 253.465 342.901C253.17 343.622 252.634 344.145 251.857 344.47C251.08 344.796 250.331 344.811 249.61 344.516C248.902 344.251 248.385 343.729 248.059 342.952L240.603 325.157C239.902 323.484 239.558 321.783 239.572 320.056C239.556 318.342 239.87 316.7 240.512 315.131C241.125 313.574 242.031 312.176 243.233 310.935C244.447 309.723 245.905 308.761 247.609 308.047Z" fill="#25471F"/>
<path d="M216.233 317.042C217.073 316.978 217.788 317.2 218.379 317.707C218.97 318.215 219.298 318.888 219.362 319.728L221.538 348.368C221.599 349.176 221.376 349.875 220.869 350.466C220.329 351.06 219.655 351.387 218.848 351.449L215.989 351.666L213.595 320.167C213.531 319.327 213.753 318.611 214.26 318.02C214.735 317.432 215.393 317.106 216.233 317.042ZM217.481 346.289L217.879 351.522L204.213 352.561C203.437 352.62 202.789 352.425 202.268 351.977C201.746 351.53 201.456 350.918 201.397 350.143C201.341 349.4 201.535 348.751 201.98 348.198C202.428 347.676 203.04 347.386 203.815 347.327L217.481 346.289ZM216.637 331.974L217.034 337.208L204.047 338.195C203.304 338.251 202.671 338.04 202.147 337.56C201.593 337.114 201.288 336.52 201.231 335.777C201.17 334.969 201.379 334.304 201.859 333.78C202.31 333.291 202.906 333.018 203.649 332.961L216.637 331.974Z" fill="#25471F"/>
<path d="M186.466 346.703C187.23 346.851 187.832 347.233 188.273 347.847C188.683 348.455 188.81 349.157 188.655 349.952C188.506 350.715 188.128 351.301 187.52 351.711C186.88 352.114 186.179 352.242 185.415 352.093L164.951 348.103C164.188 347.954 163.602 347.576 163.192 346.968C162.751 346.353 162.604 345.665 162.753 344.901C162.908 344.106 163.306 343.507 163.945 343.104C164.553 342.694 165.239 342.564 166.002 342.713L186.466 346.703ZM181.811 316.234C182.606 316.389 183.221 316.79 183.656 317.436C184.091 318.082 184.228 318.818 184.067 319.645L178.58 347.789L172.903 346.682L178.391 318.538C178.552 317.712 178.956 317.081 179.602 316.645C180.216 316.204 180.952 316.067 181.811 316.234Z" fill="#25471F"/>
<path d="M150.205 305.76C152.464 306.893 154.259 308.264 155.59 309.875C156.892 311.47 157.73 313.087 158.104 314.725C158.435 316.377 158.281 317.84 157.642 319.114C157.279 319.838 156.764 320.323 156.097 320.569C155.401 320.8 154.677 320.726 153.924 320.348C153.2 319.985 152.773 319.499 152.643 318.89C152.499 318.311 152.435 317.68 152.45 316.999C152.466 315.884 152.171 314.739 151.564 313.564C150.913 312.404 149.734 311.395 148.025 310.538C147.04 310.044 146.063 309.717 145.092 309.556C144.122 309.396 143.238 309.496 142.44 309.857C141.599 310.233 140.932 310.913 140.438 311.897C140.002 312.766 139.878 313.592 140.065 314.375C140.223 315.143 140.635 315.984 141.301 316.898C141.966 317.811 142.848 318.87 143.948 320.074C144.787 321.003 145.626 321.967 146.465 322.968C147.304 323.969 147.999 325.006 148.548 326.079C149.082 327.181 149.371 328.377 149.412 329.667C149.411 330.971 149.025 332.39 148.255 333.925C147.325 335.778 146.128 337.117 144.663 337.941C143.199 338.765 141.597 339.14 139.858 339.065C138.091 338.976 136.309 338.481 134.514 337.58C133.152 336.897 131.994 336.099 131.039 335.184C130.084 334.27 129.346 333.284 128.826 332.226C128.263 331.182 127.945 330.152 127.874 329.138C127.759 328.138 127.891 327.189 128.269 326.291C128.603 325.553 129.111 325.046 129.793 324.772C130.459 324.526 131.169 324.593 131.922 324.97C132.559 325.29 132.957 325.653 133.116 326.059C133.246 326.45 133.318 326.993 133.331 327.689C133.301 328.761 133.553 329.74 134.088 330.624C134.594 331.494 135.47 332.242 136.715 332.866C137.584 333.302 138.438 333.55 139.279 333.609C140.09 333.653 140.815 333.509 141.453 333.177C142.076 332.873 142.584 332.331 142.976 331.549C143.456 330.593 143.558 329.666 143.284 328.767C142.996 327.897 142.49 327.027 141.766 326.157C141.014 325.272 140.197 324.337 139.314 323.35C138.258 322.132 137.332 320.978 136.537 319.891C135.712 318.788 135.083 317.693 134.65 316.606C134.217 315.519 134.037 314.396 134.111 313.237C134.142 312.092 134.477 310.882 135.116 309.608C136.075 307.697 137.337 306.264 138.903 305.31C140.455 304.385 142.209 303.959 144.165 304.034C146.077 304.124 148.091 304.699 150.205 305.76Z" fill="#25471F"/>
<path d="M95.0554 294.973C94.281 294.101 93.8107 293.132 93.6446 292.066C93.4326 290.998 93.4951 289.946 93.8321 288.91C94.1233 287.872 94.705 286.966 95.5772 286.191C96.4253 285.438 97.3942 284.968 98.484 284.78C99.5523 284.568 100.616 284.62 101.676 284.936C102.691 285.248 103.585 285.841 104.359 286.713C105.112 287.561 105.595 288.519 105.807 289.588C105.994 290.677 105.93 291.752 105.615 292.812C105.278 293.848 104.685 294.742 103.837 295.495C102.965 296.269 102.007 296.752 100.963 296.942C99.8731 297.13 98.8104 297.055 97.7747 296.718C96.7147 296.403 95.8083 295.821 95.0554 294.973Z" fill="#25471F"/>
<path d="M94.7368 249.197C95.0217 249.99 94.9981 250.738 94.6661 251.443C94.334 252.147 93.7716 252.642 92.9788 252.927L65.4914 262.806C64.6986 263.09 63.9652 263.061 63.2911 262.718C62.5864 262.386 62.0917 261.824 61.8068 261.031C61.5219 260.238 61.5454 259.49 61.8775 258.785C62.1791 258.091 62.7262 257.602 63.519 257.317L74.0841 253.52L57.8898 245.965C57.5582 245.808 57.2559 245.59 56.983 245.309C56.6685 245.009 56.4346 244.646 56.2812 244.219C56.0182 243.487 56.0527 242.769 56.3848 242.064C56.7059 241.329 57.2476 240.825 58.0099 240.551C58.8026 240.266 59.5361 240.295 60.2102 240.638L74.1991 247.23L70.363 248.196L83.1726 230.526C83.3312 230.297 83.5313 230.088 83.7729 229.898C84.0144 229.707 84.2724 229.563 84.5468 229.464C85.2786 229.201 86.0175 229.246 86.7636 229.597C87.4987 229.918 87.9978 230.445 88.2608 231.177C88.6004 232.122 88.4573 233.017 87.8313 233.862L75.5104 250.735L74.6965 247.465L81.722 250.775L91.0064 247.439C91.7992 247.154 92.5479 247.177 93.2525 247.51C93.9571 247.842 94.4519 248.404 94.7368 249.197Z" fill="#25471F"/>
<path d="M85.8318 220.866C85.8787 221.642 85.6904 222.286 85.267 222.799C84.8436 223.311 84.3285 223.651 83.7219 223.817C83.0829 223.986 82.4988 223.989 81.9696 223.826L52.557 214.893C51.7956 214.647 51.2375 214.275 50.8828 213.777C50.4958 213.281 50.2808 212.677 50.2378 211.966C50.1947 211.254 50.3364 210.645 50.6629 210.138C50.955 209.601 51.4642 209.165 52.1904 208.829L80.3124 196.417C80.8828 196.188 81.4801 196.135 82.1044 196.26C82.7267 196.352 83.2789 196.627 83.761 197.085C84.2108 197.545 84.4581 198.146 84.5031 198.89C84.5402 199.505 84.4128 200.08 84.1206 200.617C83.7942 201.124 83.362 201.491 82.8239 201.718L56.3942 212.324L56.3091 210.917L83.8241 218.261C84.3837 218.389 84.857 218.701 85.244 219.197C85.5987 219.695 85.7946 220.251 85.8318 220.866ZM76.6503 218.792L71.3625 219.112L70.3799 202.86L75.6677 202.541L76.6503 218.792Z" fill="#25471F"/>
<path d="M85.662 181.227C85.4165 182.033 84.95 182.619 84.2626 182.985C83.5752 183.351 82.8285 183.412 82.0227 183.166L54.4035 174.6C53.4427 174.307 52.7791 173.817 52.4127 173.129C52.0558 172.411 52.0095 171.618 52.2739 170.75C52.51 169.975 52.874 169.392 53.366 169C53.858 168.608 54.4005 168.383 54.9935 168.327L82.1167 165.515L61.0981 148.29C60.6373 147.912 60.312 147.424 60.1221 146.824C59.9323 146.224 59.9554 145.537 60.1914 144.762C60.4558 143.894 60.9317 143.277 61.6191 142.911C62.316 142.513 63.1448 142.461 64.1056 142.754L91.8098 151.042C92.6157 151.287 93.2018 151.754 93.5681 152.441C93.9345 153.128 93.9949 153.875 93.7494 154.681C93.5039 155.487 93.0375 156.073 92.3501 156.439C91.6626 156.805 90.9207 156.85 90.1244 156.574L72.45 150.884L88.1008 163.883C88.9483 164.548 89.4885 165.22 89.7215 165.901C89.9328 166.541 89.9394 167.187 89.7411 167.838C89.5334 168.519 89.1633 169.067 88.6308 169.481C88.0674 169.885 87.2439 170.142 86.1604 170.252L65.8174 172.488L83.7224 177.588C84.5282 177.833 85.1143 178.3 85.4807 178.987C85.8565 179.643 85.9169 180.39 85.662 181.227Z" fill="#25471F"/>
<path d="M100.588 141.185C100.101 141.872 99.4735 142.282 98.7057 142.413C97.9379 142.544 97.2234 142.376 96.5624 141.908L73.4792 125.561C72.7917 125.074 72.3863 124.469 72.2628 123.746C72.1316 122.979 72.3188 122.238 72.8244 121.524L74.4816 119.184L102.245 138.845L100.588 141.185ZM77.6977 123.724L73.4142 120.691L81.9247 108.673C82.3741 108.039 82.9376 107.664 83.615 107.548C84.2925 107.432 84.9486 107.599 85.5832 108.048C86.1913 108.479 86.5665 109.042 86.7087 109.739C86.8244 110.416 86.6576 111.072 86.2082 111.707L77.6977 123.724ZM88.9683 131.944L84.6452 128.883L92.2288 118.174C92.6782 117.539 93.2548 117.173 93.9588 117.076C94.6362 116.961 95.2923 117.128 95.9269 117.577C96.535 118.008 96.9102 118.571 97.0524 119.267C97.1681 119.945 97.0013 120.601 96.5519 121.235L88.9683 131.944ZM101.43 139.995L97.0278 136.877L105.566 124.82C106.016 124.186 106.592 123.82 107.296 123.723C107.974 123.607 108.63 123.774 109.265 124.223C109.926 124.691 110.327 125.274 110.469 125.97C110.585 126.647 110.418 127.303 109.969 127.938L101.43 139.995Z" fill="#25471F"/>
<path d="M124.943 112.92C124.292 113.401 123.568 113.593 122.772 113.497C121.982 113.355 121.347 112.959 120.865 112.307L103.796 89.2066C103.315 88.5552 103.132 87.8443 103.248 87.074C103.389 86.2844 103.786 85.649 104.438 85.1676L106.744 83.4636L125.517 108.87C125.998 109.522 126.19 110.246 126.094 111.042C125.978 111.812 125.595 112.438 124.943 112.92ZM117.548 100.376L114.429 96.1548L122.012 90.5518C123.185 89.6854 123.86 88.6631 124.036 87.485C124.194 86.2808 123.869 85.1315 123.06 84.037C122.136 82.7862 121.019 82.1205 119.711 82.0399C118.383 81.9332 117.172 82.2842 116.078 83.0929L108.729 88.5226L105.61 84.3012L113.193 78.6982C114.835 77.4851 116.544 76.7457 118.322 76.4797C120.125 76.1945 121.844 76.3947 123.479 77.0803C125.12 77.7206 126.538 78.8486 127.732 80.4642C128.925 82.0798 129.6 83.7565 129.756 85.4943C129.913 87.2321 129.615 88.9019 128.865 90.5036C128.122 92.06 126.981 93.4062 125.444 94.5422L117.548 100.376ZM140.617 101.338C140.174 101.665 139.684 101.847 139.146 101.882C138.634 101.898 138.152 101.79 137.7 101.56L123.223 93.8265L127.044 89.6741L140.185 96.5819C140.553 96.753 140.881 97.034 141.17 97.4249C141.613 98.0242 141.786 98.7221 141.69 99.5184C141.6 100.269 141.243 100.876 140.617 101.338Z" fill="#25471F"/>
<path d="M153.841 94.2478C153.102 94.4897 152.431 94.4706 151.828 94.1907C151.225 93.9108 150.767 93.4984 150.452 92.9537C150.127 92.3781 149.977 91.8138 150 91.2606L151.198 60.5447C151.243 59.7458 151.462 59.1117 151.854 58.6426C152.235 58.1426 152.765 57.7818 153.442 57.5601C154.12 57.3383 154.745 57.3213 155.318 57.5088C155.911 57.6555 156.462 58.0376 156.971 58.6551L176.097 82.7197C176.463 83.2135 176.665 83.7781 176.703 84.4136C176.771 85.039 176.645 85.6428 176.324 86.2251C175.993 86.7765 175.473 87.1682 174.765 87.3999C174.18 87.5914 173.591 87.6138 172.997 87.4671C172.425 87.2796 171.96 86.9543 171.604 86.4913L154.654 63.6066L155.994 63.1683L155.854 91.6461C155.871 92.2199 155.689 92.7569 155.307 93.2568C154.915 93.726 154.427 94.0563 153.841 94.2478ZM153.524 84.8403L151.876 79.8057L167.35 74.7416L168.997 79.7762L153.524 84.8403Z" fill="#25471F"/>
<path d="M183.871 56.292C183.094 56.3176 182.421 56.0804 181.854 55.5805C181.319 55.0794 181.038 54.4241 181.011 53.6146C180.985 52.8374 181.223 52.1812 181.724 51.646C182.258 51.1097 182.913 50.8288 183.69 50.8032L204.528 50.1163C205.305 50.0907 205.962 50.3284 206.497 50.8294C207.064 51.3294 207.361 51.968 207.387 52.7452C207.413 53.5547 207.16 54.2276 206.626 54.7639C206.125 55.2991 205.486 55.5795 204.709 55.6051L183.871 56.292ZM195.222 84.9478C194.412 84.9745 193.723 84.7217 193.154 84.1893C192.586 83.657 192.287 82.9698 192.26 82.1279L191.315 53.4694L197.095 53.2789L198.04 81.9373C198.068 82.7793 197.815 83.4846 197.283 84.0532C196.783 84.6208 196.096 84.919 195.222 84.9478Z" fill="#25471F"/>
<path d="M220.845 85.5258C220.029 85.3188 219.421 84.8807 219.022 84.2114C218.624 83.5421 218.524 82.8149 218.723 82.0298L225.673 54.6117C225.88 53.7951 226.299 53.1993 226.928 52.8242C227.598 52.4256 228.356 52.3338 229.204 52.5487L231.984 53.2533L223.625 86.2303L220.845 85.5258ZM228.904 57.8874L230.194 52.7995L244.468 56.4178C245.222 56.6089 245.774 56.9997 246.126 57.5902C246.478 58.1807 246.558 58.8528 246.367 59.6066C246.184 60.3289 245.793 60.8817 245.195 61.2648C244.604 61.6164 243.932 61.6968 243.178 61.5057L228.904 57.8874ZM225.288 71.3602L226.59 66.2252L239.31 69.4494C240.063 69.6405 240.612 70.047 240.956 70.6689C241.307 71.2594 241.388 71.9316 241.197 72.6853C241.014 73.4077 240.623 73.9604 240.024 74.3435C239.434 74.6952 238.762 74.7755 238.008 74.5844L225.288 71.3602ZM222.258 85.884L223.584 80.6548L237.905 84.285C238.659 84.4761 239.208 84.8826 239.552 85.5045C239.903 86.095 239.984 86.7672 239.793 87.5209C239.594 88.3061 239.195 88.8902 238.596 89.2733C238.006 89.625 237.334 89.7053 236.58 89.5143L222.258 85.884Z" fill="#25471F"/>
<path d="M251.654 95.5301C250.933 95.0934 250.48 94.4968 250.295 93.7403C250.109 92.9837 250.235 92.2453 250.672 91.5249L265.687 66.7551C266.208 65.8962 266.852 65.3962 267.619 65.2553C268.404 65.0866 269.1 65.187 269.71 65.5565C270.403 65.9764 270.828 66.4617 270.987 67.0126C271.146 67.5634 271.235 68.1667 271.254 68.8224L271.791 97.2803L269.852 98.6051L282.603 76.7255C283.04 76.0051 283.628 75.5661 284.368 75.4083C285.125 75.2228 285.863 75.3484 286.583 75.7851C287.304 76.2218 287.743 76.81 287.901 77.5497C288.103 78.2786 287.986 79.0032 287.549 79.7236L272.408 104.701C271.988 105.394 271.377 105.838 270.576 106.035C269.82 106.22 269.109 106.111 268.444 105.708C267.89 105.372 267.494 104.962 267.258 104.478C267.004 104.021 266.87 103.523 266.856 102.984L265.993 72.9076L267.999 73.4419L255.659 94.5481C255.222 95.2685 254.626 95.7214 253.869 95.9069C253.14 96.1092 252.402 95.9836 251.654 95.5301Z" fill="#25471F"/>
<path d="M282.785 116.694C282.23 116.061 281.978 115.356 282.029 114.578C282.08 113.801 282.411 113.145 283.02 112.612L304.292 93.9695C304.926 93.4143 305.609 93.1608 306.34 93.2091C307.117 93.2603 307.794 93.6149 308.371 94.2728L310.261 96.4293L284.675 118.851L282.785 116.694ZM305.096 98.4997L309.043 95.0403L318.749 106.115C319.261 106.7 319.495 107.335 319.45 108.021C319.405 108.707 319.09 109.306 318.505 109.819C317.944 110.31 317.309 110.544 316.599 110.52C315.913 110.474 315.314 110.159 314.801 109.575L305.096 98.4997ZM294.478 107.546L298.462 104.055L307.11 113.924C307.623 114.509 307.844 115.155 307.775 115.862C307.729 116.548 307.414 117.147 306.83 117.659C306.269 118.15 305.634 118.384 304.924 118.36C304.238 118.315 303.639 118 303.126 117.415L294.478 107.546ZM283.746 117.791L287.803 114.236L297.541 125.347C298.053 125.932 298.275 126.578 298.205 127.285C298.16 127.971 297.845 128.57 297.26 129.083C296.651 129.616 295.991 129.871 295.281 129.848C294.595 129.802 293.996 129.487 293.483 128.903L283.746 117.791Z" fill="#25471F"/>
<path d="M334.807 153.557C335.194 154.658 335.262 155.733 335.012 156.782C334.804 157.851 334.347 158.801 333.643 159.632C332.98 160.482 332.098 161.101 330.998 161.487C329.928 161.863 328.853 161.931 327.773 161.692C326.704 161.483 325.739 161.032 324.878 160.339C324.057 159.665 323.454 158.778 323.068 157.677C322.692 156.607 322.609 155.538 322.817 154.469C323.057 153.389 323.523 152.419 324.216 151.557C324.92 150.726 325.808 150.123 326.878 149.748C327.978 149.361 329.048 149.278 330.086 149.497C331.166 149.736 332.121 150.208 332.952 150.912C333.813 151.605 334.432 152.487 334.807 153.557Z" fill="#25471F"/>
<defs>
<clipPath id="clip0_13_150">
<rect width="72" height="96" fill="white" transform="translate(165 153.239)"/>
</clipPath>
</defs>
</svg>
